<?xml version="1.0" standalone="no"?>
<!DOCTYPE svg PUBLIC "-//W3C//DTD SVG 20010904//EN"
 "http://www.w3.org/TR/2001/REC-SVG-20010904/DTD/svg10.dtd">
<svg version="1.0" xmlns="http://www.w3.org/2000/svg"
 width="707.000000pt" height="707.000000pt" viewBox="0 0 707.000000 707.000000"
 preserveAspectRatio="xMidYMid meet">
<metadata>
Created by potrace 1.11, written by Peter Selinger 2001-2013
</metadata>
<g transform="translate(0.000000,707.000000) scale(0.100000,-0.100000)"
fill="#000000" stroke="none">
<path d="M3477 6804 c-1 -1 -65 -4 -142 -8 -77 -3 -151 -8 -165 -10 -14 -2
-50 -7 -80 -10 -136 -15 -307 -50 -480 -97 -1295 -351 -2277 -1458 -2456
-2768 -3 -25 -8 -57 -10 -71 -18 -113 -24 -518 -11 -670 8 -80 24 -211 32
-251 3 -13 7 -37 9 -54 13 -94 72 -320 126 -485 62 -191 202 -489 305 -650
224 -352 442 -605 720 -835 26 -22 53 -45 59 -51 33 -31 278 -199 381 -261
142 -85 392 -207 525 -256 178 -66 414 -136 510 -152 19 -3 42 -8 50 -10 16
-5 52 -11 115 -20 22 -4 67 -10 100 -15 208 -32 740 -35 891 -6 12 2 45 7 74
11 29 4 62 9 74 11 12 2 37 7 56 10 152 24 428 102 595 167 44 17 82 32 85 33
92 25 456 220 615 328 371 254 679 564 925 931 37 55 84 131 106 170 21 38 44
79 51 90 108 188 262 583 298 765 2 8 8 35 15 60 7 25 14 57 16 73 2 15 5 31
8 35 2 4 7 32 11 62 4 30 8 57 10 60 2 3 6 30 10 60 3 30 8 69 10 85 10 68 19
259 18 395 0 128 -3 184 -17 357 -4 38 -13 100 -22 148 -3 11 -6 34 -8 50 -4
26 -30 152 -41 195 -2 8 -10 45 -19 81 -35 147 -130 404 -217 585 -320 667
-869 1222 -1539 1555 -479 238 -947 350 -1508 362 -46 1 -84 1 -85 1z"/>
</g>
</svg>
